# xmcd
#
# Track frame offsets: 
#        150
#        17665
#        36248
#        49937
#        66711
#        87381
#        103128
#        121857
#        136937
#        156104
#        187465
#
# Disc length: 2744 seconds
#
# Revision: 0
# Processed by: cddbd v1.5.2PL0 Copyright (c) Steve Scherf et al.
# Submitted via: ExactAudioCopy v0.99pb4
#
DISCID=a20ab60b
DTITLE=Mijares - María Bonita
DYEAR=1992
DGENRE=Pop
TTITLE0=María Bonita
TTITLE1=Ella-Qué Bonito Amor-Cuando Vivas Conmigo
TTITLE2=Quizá, Quizá, Quizá
TTITLE3=La Malagueña
TTITLE4=Ansiedad
TTITLE5=Palabras De Mujer
TTITLE6=Noche De Ronda
TTITLE7=Piel Canela
TTITLE8=Mujer
TTITLE9=La Media Vuelta-Amanecí En Tus Brazos-Retirada
TTITLE10=Cucurrucucú Paloma
EXTD=
EXTT0=
EXTT1=
EXTT2=
EXTT3=
EXTT4=
EXTT5=
EXTT6=
EXTT7=
EXTT8=
EXTT9=
EXTT10=
PLAYORDER=
